<?xml version="1.0" encoding="utf-8"?>
<!-- Generator: Adobe Illustrator 24.2.3, SVG Export Plug-In . SVG Version: 6.00 Build 0)  -->
<svg version="1.1" id="Layer_1" xmlns="http://www.w3.org/2000/svg" xmlns:xlink="http://www.w3.org/1999/xlink" x="0px" y="0px"
	 viewBox="0 0 189.4 87.9" style="enable-background:new 0 0 189.4 87.9;" xml:space="preserve">
<style type="text/css">
	.st0{fill:#444444;}
</style>
<polygon class="st0" points="81.2,0 61.4,0 58.5,7.5 78.3,7.5 "/>
<polygon class="st0" points="81.1,87.9 100.9,87.9 103.8,80.4 84.1,80.4 "/>
<polygon class="st0" points="135.3,0 115.5,0 112.6,7.5 132.4,7.5 "/>
<polygon class="st0" points="135.2,87.9 155,87.9 157.9,80.4 138.1,80.4 "/>
<polygon class="st0" points="189.4,0 169.6,0 166.6,7.5 186.4,7.5 "/>
<polygon class="st0" points="54.2,0 34.4,0 0,87.9 19.8,87.9 "/>
<polygon class="st0" points="108.3,0 88.5,0 54.1,87.9 73.9,87.9 "/>
<polygon class="st0" points="162.3,0 142.5,0 108.2,87.9 127.9,87.9 "/>
</svg>
